<?xml version="1.0" encoding="UTF-8" standalone="no"?>
<!-- Created with Inkscape (http://www.inkscape.org/) -->

<svg
   xmlns:dc="http://purl.org/dc/elements/1.1/"
   xmlns:cc="http://creativecommons.org/ns#"
   xmlns:rdf="http://www.w3.org/1999/02/22-rdf-syntax-ns#"
   xmlns:svg="http://www.w3.org/2000/svg"
   xmlns="http://www.w3.org/2000/svg"
   xmlns:sodipodi="http://sodipodi.sourceforge.net/DTD/sodipodi-0.dtd"
   xmlns:inkscape="http://www.inkscape.org/namespaces/inkscape"
   id="svg2"
   height="16"
   width="16"
   version="1.0"
   inkscape:version="0.48.4 r9939"
   sodipodi:docname="task-due.svg">
  <metadata
     id="metadata31">
    <rdf:RDF>
      <cc:Work
         rdf:about="">
        <dc:format>image/svg+xml</dc:format>
        <dc:type
           rdf:resource="http://purl.org/dc/dcmitype/StillImage" />
        <dc:title />
      </cc:Work>
    </rdf:RDF>
  </metadata>
  <sodipodi:namedview
     pagecolor="#ffffff"
     bordercolor="#666666"
     borderopacity="1"
     objecttolerance="10"
     gridtolerance="10"
     guidetolerance="10"
     inkscape:pageopacity="0"
     inkscape:pageshadow="2"
     inkscape:window-width="1366"
     inkscape:window-height="712"
     id="namedview29"
     showgrid="true"
     inkscape:zoom="13.906434"
     inkscape:cx="11.79469"
     inkscape:cy="13.149059"
     inkscape:window-x="0"
     inkscape:window-y="27"
     inkscape:window-maximized="1"
     inkscape:current-layer="svg2">
    <inkscape:grid
       type="xygrid"
       id="grid3789"
       empspacing="5"
       visible="true"
       enabled="true"
       snapvisiblegridlinesonly="true" />
  </sodipodi:namedview>
  <defs
     id="defs4">
    <linearGradient
       id="linearGradient2990"
       y2="47.013"
       gradientUnits="userSpaceOnUse"
       x2="25.132"
       gradientTransform="matrix(0.51431,0,0,0.46669,-1.8439,-1.2)"
       y1="6.7287002"
       x1="25.132">
      <stop
         id="stop3602"
         style="stop-color:#f4f4f4"
         offset="0" />
      <stop
         id="stop3604"
         style="stop-color:#dbdbdb"
         offset="1" />
    </linearGradient>
    <linearGradient
       id="linearGradient2992"
       y2="-0.10106"
       gradientUnits="userSpaceOnUse"
       x2="-47.636002"
       gradientTransform="matrix(0.4153,0,0,0.43675,28.711,-1.7201)"
       y1="17.518"
       x1="-56.333">
      <stop
         id="stop3933"
         style="stop-color:#787a75"
         offset="0" />
      <stop
         id="stop3935"
         style="stop-color:#cbcbcb"
         offset="1" />
    </linearGradient>
    <linearGradient
       id="linearGradient2906"
       y2="47.013"
       gradientUnits="userSpaceOnUse"
       x2="25.132"
       gradientTransform="matrix(0.51431,0,0,0.46669,-4.8439,-3.2)"
       y1="6.7287002"
       x1="25.132">
      <stop
         id="stop3620"
         style="stop-color:#a68b60"
         offset="0" />
      <stop
         id="stop3622"
         style="stop-color:#9b784b"
         offset="1" />
    </linearGradient>
    <linearGradient
       id="linearGradient2933"
       y2="96.245003"
       gradientUnits="userSpaceOnUse"
       x2="321.57999"
       gradientTransform="matrix(0.41035,0,0,0.51289,-118.99,-42.965)"
       y1="86.050003"
       x1="321.57999">
      <stop
         id="stop3271"
         style="stop-color:#787878"
         offset="0" />
      <stop
         id="stop3273"
         style="stop-color:#bebebe"
         offset=".34447" />
      <stop
         id="stop3275"
         style="stop-color:#c8c8c8"
         offset=".37315" />
      <stop
         id="stop3277"
         style="stop-color:#e6e6e6"
         offset=".48991" />
      <stop
         id="stop3279"
         style="stop-color:#8c8c8c"
         offset="1" />
    </linearGradient>
    <linearGradient
       id="linearGradient2935"
       y2="40.186001"
       gradientUnits="userSpaceOnUse"
       x2="22.452"
       gradientTransform="matrix(0.41182,0,0,0.51282,2.4498,-14.24)"
       y1="30.049999"
       x1="22.452">
      <stop
         id="stop3261"
         style="stop-color:#787878"
         offset="0" />
      <stop
         id="stop3263"
         style="stop-color:#828282"
         offset=".36564" />
      <stop
         id="stop3267"
         style="stop-color:#464646"
         offset="1" />
    </linearGradient>
  </defs>
  <g
     transform="translate(-127.00004,-347)"
     id="g4363">
    <path
       inkscape:connector-curvature="0"
       id="rect4263"
       d="M 132.8125,348 A 1.0001,1.0001 0 0 0 132,349 l -2,0 c -0.0312,-10e-4 -0.0625,-10e-4 -0.0937,0 -0.49158,0.0463 -0.90838,0.50624 -0.90625,1 l 0,12 c 5e-5,0.52358 0.47642,0.99995 1,1 l 5,0 0,-2 0,-4 -4,0 0,-6 1,0 a 1.0001,1.0001 0 0 0 1,1 l 4,0 a 1.0001,1.0001 0 0 0 1,-1 l 1,0 0,4 2,0 0,-5 c -5e-5,-0.52358 -0.47642,-0.99995 -1,-1 l -2,0 a 1.0001,1.0001 0 0 0 -1,-1 l -4,0 a 1.0001,1.0001 0 0 0 -0.0937,0 1.0001,1.0001 0 0 0 -0.0937,0 z M 131,358 l 3,0 0,3 -3,-3 z"
       style="font-size:medium;font-style:normal;font-variant:normal;font-weight:normal;font-stretch:normal;text-indent:0;text-align:start;text-decoration:none;line-height:normal;letter-spacing:normal;word-spacing:normal;text-transform:none;direction:ltr;block-progression:tb;writing-mode:lr-tb;text-anchor:start;baseline-shift:baseline;color:#000000;fill:#dcdcdc;fill-opacity:1;fill-rule:nonzero;stroke:none;stroke-width:2;marker:none;visibility:visible;display:inline;overflow:visible;enable-background:accumulate;font-family:Sans;-inkscape-font-specification:Sans" />
    <path
       inkscape:connector-curvature="0"
       style="font-size:medium;font-style:normal;font-variant:normal;font-weight:normal;font-stretch:normal;text-indent:0;text-align:start;text-decoration:none;line-height:normal;letter-spacing:normal;word-spacing:normal;text-transform:none;direction:ltr;block-progression:tb;writing-mode:lr-tb;text-anchor:start;baseline-shift:baseline;color:#000000;fill:#ff9a38;fill-opacity:1;fill-rule:nonzero;stroke:none;stroke-width:2;marker:none;visibility:visible;display:inline;overflow:visible;enable-background:accumulate;font-family:Sans;-inkscape-font-specification:Sans"
       d="m 136.90626,356 c -0.49159,0.0463 -0.90838,0.50624 -0.90625,1 l 0,5 c 5e-5,0.52358 0.47641,0.99995 1,1 l 5,0 c 0.52358,-5e-5 0.99995,-0.47642 1,-1 l 0,-5 c -5e-5,-0.52358 -0.47642,-0.99995 -1,-1 l -5,0 c -0.0312,-10e-4 -0.0625,-10e-4 -0.0937,0 z m 2.09375,1 1,0 0,3 -1,0 0,-3 z m 0,4 1,0 0,1 -1,0 0,-1 z"
       id="rect13949-98" />
  </g>
</svg>
